<svg width="246" height="146" viewBox="0 0 246 146" fill="none" xmlns="http://www.w3.org/2000/svg">
<rect x="0.396484" y="0.5" width="245" height="145" rx="10" fill="#F5F8FF"/>
<g clip-path="url(#clip0_201_3244)">
<path d="M86.3965 70.9352V67.382H104.378V70.9352H86.3965ZM86.5723 62.4255C87.6594 61.8916 88.6355 61.3009 89.496 60.6489C90.3564 59.9969 91.1151 59.2928 91.7674 58.5416C92.4058 57.7997 92.8962 57.0107 93.2478 56.1649C93.5947 55.3191 93.789 54.4308 93.8353 53.5H97.9016C97.8739 54.1237 97.8091 54.719 97.7073 55.3002C97.6055 55.8767 97.4621 56.4342 97.2725 56.9681C97.9247 57.3509 98.5539 57.743 99.1645 58.1352C99.7752 58.5274 100.344 58.929 100.881 59.3448C101.404 59.789 101.945 60.2709 102.509 60.7906C103.074 61.3104 103.656 61.8774 104.249 62.5011L101.681 65.4778C101.172 64.9014 100.654 64.3533 100.118 63.8335C99.5809 63.3138 99.0304 62.8177 98.466 62.3452C97.9433 61.9766 97.4344 61.6175 96.9348 61.2773C96.4351 60.9371 95.9309 60.6205 95.422 60.3229L95.163 60.6583C94.742 61.1781 94.2933 61.6695 93.8168 62.1373C93.3403 62.605 92.8314 63.035 92.2948 63.4366C91.7304 63.8666 91.1521 64.2541 90.5646 64.6037C89.9771 64.9534 89.3803 65.2652 88.7697 65.5487L86.5723 62.4255Z" fill="#0059FF"/>
<path d="M109.911 54.4639V67.0418H113.057C113.348 67.0418 113.635 67.037 113.926 67.0229C114.218 67.0087 114.505 66.9803 114.796 66.9378C115.088 66.9236 115.351 66.8953 115.592 66.8528C115.832 66.8102 116.059 66.7535 116.263 66.6827V69.8106C116.068 69.924 115.851 70.0091 115.61 70.0752C115.37 70.1366 115.101 70.1839 114.815 70.2122C114.495 70.2548 114.186 70.2831 113.885 70.2973C113.579 70.3115 113.279 70.3162 112.973 70.3162H106.081V54.4639H109.911ZM123.836 59.8314V63.4886C123.752 63.4886 123.664 63.4886 123.567 63.498C123.47 63.5075 123.368 63.5169 123.257 63.5311C123.146 63.5311 123.035 63.5406 122.924 63.55C122.813 63.5642 122.698 63.5689 122.573 63.5689C122.337 63.6114 122.115 63.654 121.902 63.6965C121.689 63.739 121.486 63.7815 121.291 63.8241V71.1998H117.461V54.1898H121.291V60.2142C121.486 60.1575 121.689 60.1055 121.902 60.0535C122.115 60.0063 122.346 59.959 122.596 59.9165C122.721 59.9165 122.841 59.9118 122.957 59.8976C123.072 59.8834 123.179 59.8787 123.276 59.8787C123.387 59.8645 123.484 59.8551 123.577 59.8456C123.664 59.8409 123.752 59.8362 123.836 59.8362V59.8314Z" fill="#1D1D1B"/>
<path d="M131.131 54.1993C131.482 54.2749 131.825 54.3883 132.153 54.5253C132.459 54.6954 132.741 54.8986 133 55.1396C133.263 55.3805 133.509 55.6593 133.745 55.9853C133.953 56.3255 134.147 56.7083 134.323 57.1382C134.503 57.5682 134.656 58.036 134.776 58.5416C134.887 59.0755 134.975 59.6614 135.035 60.2945C135.095 60.9277 135.128 61.6128 135.128 62.3452C135.128 63.0775 135.095 63.8052 135.035 64.4478C134.975 65.0904 134.887 65.6621 134.776 66.1724C134.651 66.7063 134.499 67.1883 134.323 67.6088C134.142 68.0293 133.948 68.4073 133.745 68.7286C133.509 69.0688 133.263 69.357 133 69.5933C132.736 69.8343 132.454 70.0233 132.153 70.165C131.825 70.3209 131.482 70.4343 131.131 70.5052C130.779 70.5761 130.409 70.6092 130.025 70.6092C129.613 70.6092 129.23 70.5761 128.878 70.5052C128.526 70.4343 128.198 70.3209 127.897 70.165C127.564 70.0233 127.268 69.8343 126.995 69.5933C126.727 69.3523 126.486 69.0641 126.283 68.7286C126.047 68.4026 125.848 68.0293 125.681 67.6088C125.515 67.1883 125.376 66.7063 125.27 66.1724C125.145 65.6668 125.057 65.0904 125.001 64.4478C124.946 63.8052 124.918 63.1059 124.918 62.3452C124.918 61.5844 124.946 60.9277 125.001 60.2945C125.057 59.6614 125.145 59.0755 125.27 58.5416C125.381 58.036 125.519 57.5682 125.681 57.1382C125.848 56.7083 126.047 56.3255 126.283 55.9853C126.491 55.6593 126.727 55.3805 126.995 55.1396C127.263 54.8986 127.564 54.6954 127.897 54.5253C128.203 54.3836 128.526 54.2749 128.878 54.1993C129.23 54.1237 129.613 54.0812 130.025 54.0812C130.409 54.0812 130.779 54.119 131.131 54.1993ZM129.701 57.6249C129.6 57.658 129.507 57.7005 129.424 57.743C129.313 57.8139 129.216 57.9037 129.132 58.0076C129.049 58.1116 128.975 58.2486 128.906 58.4187C128.822 58.5888 128.758 58.7967 128.711 59.0424C128.665 59.2881 128.619 59.5622 128.577 59.8551C128.522 60.1811 128.485 60.5497 128.462 60.9655C128.443 61.3813 128.429 61.8443 128.429 62.3499C128.429 62.8838 128.438 63.361 128.462 63.7768C128.48 64.1926 128.522 64.547 128.577 64.8447C128.619 65.1707 128.665 65.4495 128.711 65.6905C128.758 65.9314 128.827 66.1346 128.906 66.3047C128.975 66.4748 129.049 66.6166 129.132 66.7252C129.216 66.8386 129.313 66.9142 129.424 66.9568C129.507 67.0276 129.6 67.0749 129.701 67.0938C129.803 67.1127 129.91 67.1269 130.021 67.1269C130.104 67.1269 130.192 67.1174 130.289 67.0938C130.386 67.0749 130.488 67.0276 130.599 66.9568C130.682 66.9142 130.77 66.8386 130.858 66.7252C130.946 66.6118 131.034 66.4701 131.117 66.3047C131.172 66.1346 131.233 65.9314 131.293 65.6905C131.353 65.4495 131.413 65.1707 131.469 64.8447C131.51 64.547 131.543 64.1926 131.57 63.7768C131.598 63.361 131.612 62.8838 131.612 62.3499C131.612 61.8443 131.598 61.3813 131.57 60.9655C131.543 60.5497 131.51 60.1811 131.469 59.8551C131.413 59.5574 131.353 59.2881 131.293 59.0424C131.233 58.7967 131.172 58.5888 131.117 58.4187C131.034 58.2486 130.946 58.1116 130.858 58.0076C130.77 57.9037 130.682 57.8139 130.599 57.743C130.488 57.7005 130.386 57.6627 130.289 57.6249C130.192 57.5918 130.104 57.5729 130.021 57.5729C129.91 57.5729 129.803 57.5918 129.701 57.6249ZM136.705 71.2045V54.1899H140.536V71.2045H136.705Z" fill="#1D1D1B"/>
<path d="M143.742 57.5304H142.812V54.3599H152.767V57.5304H151.611V67.1268H152.767V70.2973H142.812V67.1268H143.742V57.5304ZM148.294 67.1268V57.5304H147.054V67.1268H148.294ZM155.02 63.5973C154.909 63.6398 154.784 63.6681 154.636 63.6823C154.493 63.6965 154.331 63.7012 154.151 63.7012C153.942 63.7154 153.739 63.7201 153.54 63.7201H152.638V60.337H155.016V54.1898H158.638V71.2281H155.016V63.5973H155.02Z" fill="#1D1D1B"/>
<path d="M87.6596 77.2524H86.8315V74.2521H95.5286V77.2524H94.682V81.2261H95.5286V84.2218H86.8315V81.2261H87.6596V77.2524ZM101.052 92.0889V89.1121H88.113V85.5589H104.855V92.0889H101.052ZM91.726 81.2261V77.2524H90.6157V81.2261H91.726ZM101.487 80.9379C101.297 80.9804 101.103 81.0135 100.9 81.0371C100.696 81.0608 100.488 81.0702 100.27 81.0702V84.7793H96.898V74.1859H100.27V77.5832H101.487V74.1859H104.859V84.7793H101.487V80.9379Z" fill="#0059FF"/>
<path d="M118.932 83.532C119.316 83.532 119.691 83.532 120.051 83.5226C120.412 83.5179 120.755 83.499 121.088 83.4706C121.393 83.4706 121.684 83.4517 121.967 83.4186C122.249 83.3856 122.517 83.343 122.762 83.3005V86.3245C122.568 86.3954 122.346 86.4568 122.092 86.5041C121.837 86.5513 121.55 86.5844 121.231 86.5986C120.898 86.6411 120.551 86.6694 120.186 86.6836C119.82 86.6978 119.445 86.7025 119.057 86.7025H116.799V88.6492H123.484V91.8197H106.372V88.6492H113.057V86.7025H107.385V75.0554H122.448V78.2259H110.901V79.2843H122.24V82.4547H110.901V83.532H118.932Z" fill="#1D1D1B"/>
<path d="M125.367 81.4814H131.182V78.4999H125.469V75.2255H134.698V84.6519H128.883V87.8837H135.276V91.1582H125.362V81.4767L125.367 81.4814ZM136.747 92.0701V75.0554H140.578V92.0701H136.747Z" fill="#1D1D1B"/>
<path d="M150.279 78.7408V77.2004C147.221 77.5501 144.774 80.0024 144.367 83.1067H145.879C146.263 80.8434 148.044 79.0668 150.279 78.7408Z" fill="#0059FF"/>
<path d="M156.172 83.1114H157.685C157.278 80.0071 154.831 77.5548 151.773 77.2052V78.7455C154.007 79.0763 155.788 80.8529 156.172 83.1114Z" fill="#0059FF"/>
<path d="M145.833 84.6376H144.33C144.612 87.8836 147.115 90.4871 150.274 90.8462V89.3059C147.943 88.9609 146.101 87.0379 145.833 84.6376Z" fill="#0059FF"/>
<path d="M151.773 89.3059V90.8462C154.933 90.4871 157.435 87.8836 157.717 84.6376H156.214C155.946 87.0426 154.105 88.9657 151.773 89.3059Z" fill="#0059FF"/>
<path d="M151.028 80.9852C149.381 80.9852 148.04 82.3555 148.04 84.0376C148.04 85.7197 149.381 87.0899 151.028 87.0899C152.675 87.0899 154.016 85.7197 154.016 84.0376C154.016 82.3555 152.675 80.9852 151.028 80.9852ZM151.028 85.559C150.205 85.559 149.538 84.8739 149.538 84.0376C149.538 83.2012 150.209 82.5161 151.028 82.5161C151.847 82.5161 152.518 83.2012 152.518 84.0376C152.518 84.8739 151.847 85.559 151.028 85.559Z" fill="#0059FF"/>
<path d="M151.773 77.2052V76.3405C151.773 75.92 151.44 75.5751 151.023 75.5751C150.607 75.5751 150.274 75.9153 150.274 76.3405V77.2052C150.519 77.1768 150.769 77.1627 151.023 77.1627C151.278 77.1627 151.528 77.1768 151.773 77.2052Z" fill="#0059FF"/>
<path d="M151.028 78.6889C151.283 78.6889 151.532 78.7078 151.778 78.7456V77.2052C151.532 77.1769 151.283 77.1627 151.028 77.1627C150.774 77.1627 150.524 77.1769 150.279 77.2052V78.7456C150.524 78.7078 150.774 78.6889 151.028 78.6889Z" fill="#0059FF"/>
<path d="M150.279 90.8462V91.7345C150.279 92.155 150.612 92.4999 151.028 92.4999C151.445 92.4999 151.778 92.1597 151.778 91.7345V90.8462C151.532 90.8745 151.283 90.8887 151.028 90.8887C150.774 90.8887 150.524 90.8745 150.279 90.8462Z" fill="#0059FF"/>
<path d="M151.028 89.3626C150.774 89.3626 150.524 89.3437 150.279 89.3059V90.8463C150.524 90.8746 150.774 90.8888 151.028 90.8888C151.283 90.8888 151.532 90.8746 151.778 90.8463V89.3059C151.532 89.3437 151.283 89.3626 151.028 89.3626Z" fill="#0059FF"/>
<path d="M158.652 83.1114H157.689C157.726 83.4091 157.75 83.7162 157.75 84.0281C157.75 84.236 157.74 84.4391 157.722 84.6376H158.652C159.063 84.6376 159.401 84.2974 159.401 83.8721C159.401 83.4469 159.068 83.1067 158.652 83.1067V83.1114Z" fill="#0059FF"/>
<path d="M157.685 83.1115H156.172C156.223 83.4091 156.251 83.7162 156.251 84.0281C156.251 84.236 156.237 84.4392 156.214 84.6376H157.717C157.736 84.4344 157.745 84.2313 157.745 84.0281C157.745 83.7162 157.722 83.4138 157.685 83.1115Z" fill="#0059FF"/>
<path d="M144.366 83.1115H143.501C143.09 83.1115 142.752 83.4517 142.752 83.8769C142.752 84.3021 143.085 84.6423 143.501 84.6423H144.334C144.316 84.4392 144.306 84.236 144.306 84.0328C144.306 83.721 144.329 83.4186 144.366 83.1162V83.1115Z" fill="#0059FF"/>
<path d="M145.8 84.0233C145.8 83.7115 145.828 83.4044 145.879 83.1067H144.366C144.329 83.4044 144.306 83.7115 144.306 84.0233C144.306 84.2312 144.315 84.4344 144.334 84.6329H145.837C145.814 84.4297 145.8 84.2265 145.8 84.0233Z" fill="#0059FF"/>
<path d="M151.31 86.3244C152.547 86.3244 153.549 85.3005 153.549 84.0375C153.549 82.7745 152.547 81.7506 151.31 81.7506C150.074 81.7506 149.071 82.7745 149.071 84.0375C149.071 85.3005 150.074 86.3244 151.31 86.3244Z" fill="#0059FF"/>
</g>
<defs>
<clipPath id="clip0_201_3244">
<rect width="73" height="39" fill="white" transform="translate(86.3965 53.5)"/>
</clipPath>
</defs>
</svg>
